<?xml version="1.0" encoding="UTF-8" standalone="no"?>
        <svg 
    viewBox="3.2958984375 -86.42578125 448.828125 57.275390625"
    width="445.5322265625"
    height="143.701171875"
   xmlns="http://www.w3.org/2000/svg"
   xmlns:svg="http://www.w3.org/2000/svg">
   <path d="M15.01-126.27L16.19-127.08Q27.10-125.54 33.29-122.20Q39.48-118.87 41.82-114.81Q44.17-110.74 43.54-107.01Q42.92-103.27 40.21-100.82Q37.50-98.36 33.51-98.18Q29.52-98.00 25.20-101.22L25.20-101.22Q24.32-107.89 21.24-114.62Q18.16-121.36 15.01-126.27L15.01-126.27ZM3.59-93.02L4.83-93.75Q15.23-92.29 21.02-89.03Q26.81-85.77 28.93-81.88Q31.05-78.00 30.32-74.38Q29.59-70.75 26.88-68.44Q24.17-66.14 20.29-66.10Q16.41-66.06 12.30-69.29L12.30-69.29Q11.94-75.59 9.41-82.03Q6.88-88.48 3.59-93.02L3.59-93.02ZM45.63 3.88L45.63-48.63L45.63-56.25L65.84-48.63L112.21-48.63L120.48-59.11L140.26-45.63Q139.45-44.46 137.95-43.73Q136.45-42.99 133.52-42.48L133.52-42.48L133.52 1.32L138.57-8.13Q138.57-8.13 140.63-5.79Q142.68-3.44 145.31-0.22Q147.95 3.00 149.85 5.71L149.85 5.71Q149.19 8.13 145.97 8.13L145.97 8.13L35.38 8.13L34.64 5.42Q33.18 9.30 29.77 11.54Q26.37 13.77 21.75 13.77L21.75 13.77Q18.97 13.77 16.30 12.01Q13.62 10.25 12.60 5.86L12.60 5.86Q14.14-2.34 14.43-9.56Q14.72-16.77 13.92-21.72Q13.11-26.66 11.28-27.91L11.28-27.91Q7.98-30.03 3.30-30.47L3.30-30.47L3.30-33.18Q3.30-33.18 4.69-33.18Q6.08-33.18 7.73-33.18Q9.38-33.18 10.18-33.18L10.18-33.18Q12.01-33.18 12.82-33.54Q13.62-33.91 15.01-36.33L15.01-36.33Q16.11-38.01 17.10-39.66Q18.09-41.31 19.81-44.68Q21.53-48.05 24.72-54.71Q27.91-61.38 33.40-72.91Q38.89-84.45 47.53-102.61L47.53-102.61L49.80-102.03Q47.97-96.46 45.78-89.50Q43.58-82.54 41.31-75.22Q39.04-67.90 37.02-61.19Q35.01-54.49 33.54-49.37Q32.08-44.24 31.49-41.67L31.49-41.67Q30.47-37.87 29.74-33.98Q29.00-30.10 29.08-27.17L29.08-27.17Q29.22-22.78 30.94-19.12Q32.67-15.45 34.20-10.95Q35.74-6.45 35.52 0.44L35.52 0.44Q35.52 2.34 35.08 3.88L35.08 3.88L45.63 3.88ZM106.20-90.89L72.29-90.89L72.29-72.29L106.20-72.29L106.20-90.89ZM72.29-112.06L72.29-95.07L106.20-95.07L106.20-112.06L72.29-112.06ZM52.37-56.40L52.37-116.24L52.37-124.22L73.83-116.24L105.62-116.24L115.21-127.22L133.08-113.53Q132.28-112.57 130.96-111.80Q129.64-111.04 127.08-110.52L127.08-110.52L127.08-62.55Q127.08-61.89 122.50-60.06Q117.92-58.23 109.94-58.23L109.94-58.23L106.20-58.23L106.20-68.12L72.29-68.12L72.29-61.08Q72.29-60.06 67.93-58.23Q63.57-56.40 55.96-56.40L55.96-56.40L52.37-56.40ZM64.53 3.88L70.53 3.88L70.53-44.38L64.53-44.38L64.53 3.88ZM85.99-44.38L85.99 3.88L92.07 3.88L92.07-44.38L85.99-44.38ZM107.52-44.38L107.52 3.88L113.67 3.88L113.67-44.38L107.52-44.38ZM161.43-124.95L162.45-125.83Q173.88-125.98 180.65-123.60Q187.43-121.22 190.36-117.55Q193.29-113.89 193.21-110.08Q193.14-106.27 190.69-103.45Q188.23-100.63 184.24-99.90Q180.25-99.17 175.49-101.88L175.49-101.88Q173.73-108.18 169.59-114.48Q165.45-120.78 161.43-124.95L161.43-124.95ZM154.03-89.28L155.13-90.01Q166.04-89.50 172.30-86.79Q178.56-84.08 181.05-80.35Q183.54-76.61 183.03-72.95Q182.52-69.29 179.85-66.72Q177.17-64.16 173.18-63.83Q169.19-63.50 164.72-66.58L164.72-66.58Q163.92-72.80 160.77-78.96Q157.62-85.11 154.03-89.28L154.03-89.28ZM162.60-34.20L162.60-34.20Q164.50-34.20 165.45-34.57Q166.41-34.94 167.87-37.21L167.87-37.21Q169.04-38.89 170.03-40.43Q171.02-41.97 172.71-44.97Q174.39-47.97 177.54-53.83Q180.69-59.69 186.04-69.80Q191.38-79.91 199.80-95.87L199.80-95.87L201.93-95.21Q199.80-89.28 197.24-81.45Q194.68-73.61 192.15-65.70Q189.62-57.79 187.72-51.53Q185.82-45.26 185.08-42.48L185.08-42.48Q184.06-38.82 183.33-34.90Q182.59-30.98 182.67-28.20L182.67-28.20Q182.81-24.90 183.95-22.23Q185.08-19.56 186.44-16.74Q187.79-13.92 188.78-10.33Q189.77-6.74 189.62-1.68L189.62-1.68Q189.40 4.39 185.19 8.13Q180.98 11.87 174.61 11.87L174.61 11.87Q171.68 11.87 168.82 10.14Q165.97 8.42 164.72 4.03L164.72 4.03Q166.26-3.88 166.63-10.99Q166.99-18.09 166.22-22.92Q165.45-27.76 163.62-28.93L163.62-28.93Q160.47-31.05 155.57-31.49L155.57-31.49L155.57-34.20Q155.57-34.20 156.99-34.20Q158.42-34.20 160.11-34.20Q161.79-34.20 162.60-34.20ZM216.72-24.76L216.72-24.76L240.45-12.74Q239.58-10.77 235.62-11.43L235.62-11.43Q230.57-6.30 222.33-1.21Q214.09 3.88 204.38 7.98Q194.68 12.08 185.23 14.28L185.23 14.28L184.35 12.60Q190.94 8.13 197.35 1.57Q203.76-4.98 208.85-11.94Q213.94-18.90 216.72-24.76ZM245.87-20.87L246.90-21.90Q261.99-21.53 271.69-18.35Q281.40-15.16 286.52-10.47Q291.65-5.79 292.93-0.92Q294.21 3.96 292.46 7.80Q290.70 11.65 286.60 13.15Q282.50 14.65 276.93 12.45L276.93 12.45Q273.49 6.59 268.21 0.44Q262.94-5.71 257.04-11.24Q251.15-16.77 245.87-20.87L245.87-20.87ZM253.34-103.05L253.34-127.81L279.57-125.54Q279.35-123.85 278.28-122.75Q277.22-121.66 274.22-121.22L274.22-121.22L274.22-103.78L282.42-116.67Q282.42-116.67 285.13-114.11Q287.84-111.55 291.39-107.92Q294.95-104.30 297.58-101.22L297.58-101.22Q296.92-98.88 293.55-98.88L293.55-98.88L274.22-98.88L274.22-31.79L282.71-45.12Q282.71-45.12 284.44-43.51Q286.16-41.89 288.72-39.37Q291.28-36.84 294.03-34.02Q296.78-31.20 298.97-28.78L298.97-28.78Q298.32-26.37 294.73-26.37L294.73-26.37L188.09-26.37L186.91-30.62L208.96-30.62L208.96-98.88L193.95-98.88L192.77-103.05L208.96-103.05L208.96-127.81L234.74-125.54Q234.52-123.85 233.46-122.75Q232.40-121.66 229.32-121.22L229.32-121.22L229.32-103.05L253.34-103.05ZM253.34-98.88L229.32-98.88L229.32-80.71L253.34-80.71L253.34-98.88ZM229.32-52.81L229.32-30.62L253.34-30.62L253.34-52.81L229.32-52.81ZM253.34-76.46L229.32-76.46L229.32-56.98L253.34-56.98L253.34-76.46ZM413.96-121.36L413.96-121.36L436.67-104.74Q436.08-103.71 434.80-103.23Q433.52-102.76 430.81-103.20L430.81-103.20Q425.17-101.37 418.18-99.57Q411.18-97.78 403.93-96.31L403.93-96.31Q412.13-90.53 421.84-87.82Q431.54-85.11 440.99-84.01L440.99-84.01L440.84-82.47Q434.77-80.49 430.77-74.74Q426.78-68.99 425.54-61.38L425.54-61.38Q414.92-66.43 407.04-73.54Q399.17-80.64 393.75-91.48Q388.33-102.32 385.03-118.65L385.03-118.65L385.03-79.61Q385.03-72.80 383.42-68.19Q381.81-63.57 376.61-60.94Q371.41-58.30 360.72-57.42L360.72-57.42Q360.50-62.04 359.95-65.44Q359.40-68.85 358.08-70.97L358.08-70.97Q356.62-72.95 354.42-74.52Q352.22-76.10 347.24-77.12L347.24-77.12L347.24-78.88Q347.24-78.88 349.00-78.77Q350.76-78.66 353.25-78.52Q355.74-78.37 358.01-78.26Q360.28-78.15 361.23-78.15L361.23-78.15Q362.92-78.15 363.46-78.63Q364.01-79.10 364.01-80.13L364.01-80.13L364.01-100.78Q363.06-99.83 359.99-99.61L359.99-99.61Q353.61-85.40 339.99-75.29Q326.37-65.19 306.45-60.13L306.45-60.13L305.57-61.96Q318.16-68.85 326.18-79.28Q334.20-89.72 337.79-102.03L337.79-102.03L314.58-102.03L313.18-106.20L337.21-106.20L347.53-116.38L364.01-103.05L364.01-129.13L389.87-126.78Q389.65-125.17 388.70-124.26Q387.74-123.34 385.03-122.97L385.03-122.97Q387.30-115.72 390.89-110.05Q394.48-104.37 399.02-100.34L399.02-100.34Q403.42-105.54 407.59-111.44Q411.77-117.33 413.96-121.36ZM356.10-52.51L356.10-52.51L378.44-44.38Q378.08-43.29 376.87-42.59Q375.66-41.89 372.58-41.97L372.58-41.97Q370.61-39.99 366.87-37.06Q363.13-34.13 359.84-31.35L359.84-31.35Q367.60-28.56 370.79-24.65Q373.97-20.73 373.75-16.96Q373.54-13.18 370.97-10.66Q368.41-8.13 364.53-7.95Q360.64-7.76 356.69-11.28L356.69-11.28Q356.69-16.19 355.11-21.35Q353.54-26.51 351.27-30.62L351.27-30.62L351.27-6.45Q351.27-0.15 349.95 4.25Q348.63 8.64 344.31 11.17Q339.99 13.70 331.05 14.58L331.05 14.58Q330.83 10.18 330.47 6.99Q330.10 3.81 328.93 1.68L328.93 1.68Q327.91-0.37 326.07-1.72Q324.24-3.08 320.58-3.88L320.58-3.88L320.58-6.01Q320.58-6.01 322.71-5.86Q324.83-5.71 327.36-5.57Q329.88-5.42 330.91-5.42L330.91-5.42Q332.37-5.42 332.85-5.90Q333.33-6.37 333.33-7.32L333.33-7.32L333.33-33.33L332.67-33.18Q330.10-21.02 322.78-9.63Q315.45 1.76 302.42 9.30L302.42 9.30L301.17 7.32Q308.50-0.66 311.90-11.98Q315.31-23.29 316.33-34.64L316.33-34.64L304.98-34.64L303.59-38.82L315.16-38.82L323.22-47.09L333.33-39.18L333.33-61.23L356.10-58.96Q355.88-57.35 354.93-56.51Q353.98-55.66 351.27-55.22L351.27-55.22L351.27-33.62L355.52-32.67Q355.74-37.57 355.92-43.36Q356.10-49.15 356.10-52.51ZM427.08-53.39L427.08-53.39L448.17-40.21Q447.73-39.33 446.48-38.89Q445.24-38.45 442.68-38.96L442.68-38.96Q439.75-37.21 434.66-34.75Q429.57-32.30 425.39-30.18L425.39-30.18Q430.22-23.14 436.30-19.12Q442.38-15.09 448.83-12.60L448.83-12.60L448.54-11.13Q443.12-9.30 439.20-3.96Q435.28 1.39 433.81 8.72L433.81 8.72Q428.03 2.49 424.44-4.87Q420.85-12.23 418.80-21.90Q416.75-31.57 415.65-44.82L415.65-44.82L415.65-6.74Q415.65-0.37 414.29 4.06Q412.94 8.50 408.47 11.10Q404.00 13.70 394.78 14.58L394.78 14.58Q394.70 10.18 394.26 6.88Q393.82 3.59 392.72 1.32L392.72 1.32Q391.55-0.66 389.69-2.12Q387.82-3.59 383.86-4.32L383.86-4.32L383.86-6.30Q383.86-6.30 386.17-6.19Q388.48-6.08 391.11-5.97Q393.75-5.86 394.78-5.86L394.78-5.86Q397.34-5.86 397.34-7.62L397.34-7.62L397.34-33.47L396.31-33.33Q393.68-20.58 385.88-9.23Q378.08 2.12 363.87 9.45L363.87 9.45L362.84 7.47Q370.97-0.59 374.67-11.83Q378.37-23.07 379.32-34.79L379.32-34.79L372.00-34.79L370.68-38.96L378.15-38.96L386.43-47.53L397.34-38.67L397.34-61.52L420.48-59.25Q420.19-57.64 419.27-56.80Q418.36-55.96 415.65-55.52L415.65-55.52Q416.89-49.00 418.69-43.73Q420.48-38.45 422.83-34.20L422.83-34.20Q424.07-39.04 425.21-44.53Q426.34-50.02 427.08-53.39Z"/>
    </svg>
        