<svg width="296" height="296" version="1.1" xmlns="http://www.w3.org/2000/svg" xmlns:xlink="http://www.w3.org/1999/xlink"><path d="M253.08 186.85L253.08 186.85L250.42 188.92Q177.01 190.99 158.36 192.47L158.36 192.47Q136.46 194.25 117.81 197.80L117.81 197.80L84.06 205.50L83.77 205.50Q77.26 206.39 70.74 201.95L70.74 201.95Q67.49 199.87 65.71 196.91L65.71 196.91Q65.71 194.84 66.90 194.84L66.90 194.84L111.89 189.51L112.48 107.82Q89.98 105.45 86.73 100.71L86.73 100.71Q86.14 100.12 85.84 99.23L85.84 99.23L86.43 98.35Q90.28 97.16 108.34 95.09L108.34 95.09Q110.11 95.09 111.59 94.79L111.59 94.79Q110.41 82.07 105.38 67.27L105.38 67.27Q100.94 56.31 100.94 56.02L100.94 56.02Q99.46 47.73 112.48 53.35L112.48 53.35Q121.95 57.79 125.21 61.35L125.21 61.35Q128.76 65.49 125.50 89.17L125.50 89.17Q125.21 91.54 125.21 92.72L125.21 92.72Q140.01 89.76 169.31 82.66L169.31 82.66L169.61 56.91Q169.02 48.62 166.65 42.70L166.65 42.70L159.25 30.27Q158.95 29.38 158.95 28.49L158.95 28.49Q158.95 25.53 162.80 23.16L162.80 23.16Q175.53 23.16 186.78 30.86L186.78 30.86Q190.33 33.52 192.40 36.78L192.40 36.78L186.18 68.75Q185.59 72.89 185.30 77.03L185.30 77.03L200.98 73.78Q205.72 73.48 210.16 75.26L210.16 75.26Q216.67 77.92 218.15 80.88L218.15 80.88Q217.26 85.62 186.78 92.43L186.78 92.43L185.59 92.72L184.41 94.20Q182.63 151.63 179.67 180.34L179.67 180.34L215.78 173.53Q240.35 170.57 251.30 181.52L251.30 181.52Q253.38 183.30 253.08 186.85ZM168.72 95.98L168.72 95.98L124.62 105.15L124.62 124.10L142.38 117.88Q153.03 115.51 159.84 121.73L159.84 121.73L160.43 123.80L159.84 124.99Q154.22 127.35 134.68 130.61L134.68 130.61Q128.76 131.79 124.62 132.98L124.62 132.98L124.32 152.81Q131.13 148.37 137.34 147.48L137.34 147.48Q143.86 146.59 150.07 147.48L150.07 147.48Q159.25 148.96 161.32 154.29L161.32 154.29L160.14 156.36Q155.40 157.55 129.35 160.80L129.35 160.80Q126.69 161.10 124.62 161.39L124.62 161.39L125.21 187.74L166.06 181.82Q168.72 149.85 168.72 95.98ZM73.11 73.48L73.11 73.48Q75.78 87.10 69.86 91.83L69.86 91.83Q62.16 91.83 53.28 80.88L53.28 80.88Q49.14 75.85 47.66 74.37L47.66 74.37Q38.48 65.79 39.07 60.75L39.07 60.75Q39.07 59.87 39.37 58.98L39.37 58.98Q40.55 58.09 46.77 58.68L46.77 58.68Q62.46 64.31 64.23 65.19L64.23 65.19Q69.86 68.45 73.11 73.48ZM191.22 246.64L161.91 212.01Q160.73 205.79 162.50 204.61L162.50 204.61L189.44 219.11Q211.64 232.43 216.38 246.64L216.38 246.64Q219.04 255.23 216.38 262.63L216.38 262.63Q213.42 271.80 204.24 263.51L204.24 263.51Q201.58 261.15 193.58 249.90L193.58 249.90Q192.40 247.83 191.22 246.64L191.22 246.64ZM49.43 123.80L49.43 123.80Q58.02 137.71 50.62 141.86L50.62 141.86Q48.25 143.04 44.10 143.04L44.10 143.04Q37 138.90 26.94 125.28L26.94 125.28Q24.27 121.73 23.09 119.36Q21.90 116.99 22.79 114.03L22.79 114.03Q25.75 108.71 47.66 122.62L47.66 122.62Q48.84 123.21 49.43 123.80ZM64.53 265.29L64.53 265.29L91.17 241.31Q103.01 229.77 108.34 220.00L108.34 220.00L112.48 209.64L112.78 209.35Q115.44 204.91 127.58 209.94L127.58 209.94Q133.50 212.60 134.98 214.97L134.98 214.97Q138.82 220.59 109.22 243.39L109.22 243.39Q85.84 261.44 76.96 264.11L76.96 264.11Q72.82 265.29 64.53 265.29ZM68.97 145.41L68.97 151.33L49.43 202.24Q42.03 224.15 39.96 241.61L39.96 241.61Q38.78 242.50 34.93 242.50L34.93 242.50Q24.27 235.69 18.94 214.38L18.94 214.38Q19.54 211.12 25.75 206.39L25.75 206.39Q27.82 204.91 29.01 203.72L29.01 203.72Q36.70 195.43 51.80 169.68L51.80 169.68Q61.27 153.70 68.08 145.41L68.08 145.41L68.97 145.41Z" stroke="#000" fill="black" /></svg>