<svg width="296" height="296" version="1.1" xmlns="http://www.w3.org/2000/svg" xmlns:xlink="http://www.w3.org/1999/xlink"><path d="M245.09 132.02L245.09 132.02L243.31 133.50Q216.67 137.64 203.35 137.64L203.35 137.64Q196.84 137.64 191.81 133.50L191.81 133.50Q178.19 121.95 150.66 86.73L150.66 86.73Q142.67 76.07 138.53 71.04L138.53 71.04Q137.94 93.24 137.94 104.78L137.94 104.78L138.82 133.79Q138.53 135.86 138.53 137.94L138.53 137.94Q137.64 148.30 128.46 154.22L128.46 154.22L124.91 154.22Q121.36 150.07 105.08 136.46L105.08 136.46L96.50 128.46L96.50 126.69Q98.27 126.69 113.96 129.06L113.96 129.06Q117.81 129.94 121.06 129.94L121.06 129.94L123.43 126.98Q127.58 74 124.32 48.84L124.32 48.84Q122.84 40.26 115.14 29.90L115.14 29.90Q115.14 27.53 117.81 26.05L117.81 26.05Q135.27 26.05 142.97 35.82L142.97 35.82L138.23 59.20L137.94 63.05L155.40 78.74L172.86 61.86Q180.86 53.28 184.41 44.70L184.41 44.70Q183.22 34.63 193.29 39.96L193.29 39.96Q201.58 44.70 206.31 50.91L206.31 50.91Q206.31 55.65 198.62 58.61L198.62 58.61L194.77 60.38L161.91 80.81Q160.73 81.40 159.25 82.29L159.25 82.29Q184.41 107.74 224.66 123.14L224.66 123.14L240.94 128.76Q244.79 130.54 245.09 132.02ZM264.33 249.23L264.33 249.23L262.85 250.71L228.51 250.71Q223.48 250.71 218.74 245.98L218.74 245.98Q208.38 234.73 186.78 198.32L186.78 198.32Q184.41 194.47 182.93 192.10L182.93 192.10Q182.34 200.39 183.22 237.98L183.22 237.98Q183.52 249.53 182.93 257.82L182.93 257.82Q182.34 270.54 173.46 274.98L173.46 274.98L169.90 274.10Q167.24 270.84 154.22 260.48L154.22 260.48Q146.52 254.56 142.97 249.53L142.97 249.53L144.45 248.64L164.28 253.08Q166.06 253.08 167.54 253.38L167.54 253.38Q171.09 243.02 170.79 217.56L170.79 217.56Q170.79 215.19 170.79 213.42L170.79 213.42L171.09 177.30Q170.20 156.29 164.87 148.30L164.87 148.30Q162.50 145.34 162.50 143.86L162.50 143.86Q167.83 138.53 180.26 145.04L180.26 145.04Q185.59 148 187.66 150.96L187.66 150.96Q182.93 169.31 182.63 179.08L182.63 179.08Q183.82 181.15 194.18 194.18L194.18 194.18Q195.95 196.25 197.14 198.02L197.14 198.02Q212.53 181.15 216.08 175.82L216.08 175.82Q218.15 172.57 219.63 169.02L219.63 169.02Q219.63 165.17 220.52 163.98L220.52 163.98Q232.95 164.28 239.46 174.64L239.46 174.64Q240.35 176.12 240.94 177.60L240.94 177.60Q237.98 182.93 201.87 200.69L201.87 200.69Q200.98 200.98 200.69 201.28L200.69 201.28Q211.34 216.08 236.50 231.18L236.50 231.18Q257.52 244.20 264.33 249.23ZM114.85 74.89L114.85 74.89Q114.55 76.66 110.41 81.70L110.41 81.70Q109.52 82.88 108.93 83.77L108.93 83.77Q81.99 129.65 46.47 144.45L46.47 144.45Q43.22 145.93 39.96 146.82L39.96 146.82Q37.59 147.70 34.63 147.41L34.63 147.41L32.86 146.82Q34.34 145.34 46.18 136.75L46.18 136.75Q47.95 135.57 49.43 134.38L49.43 134.38Q81.10 108.34 93.24 79.03L93.24 79.03L92.65 78.14L71.04 84.66Q61.27 86.43 52.69 79.92L52.69 79.92Q52.69 76.96 57.42 76.37L57.42 76.37Q87.32 71.34 97.38 67.78L97.38 67.78Q98.27 67.49 98.86 67.19L98.86 67.19Q108.34 68.08 114.85 74.89ZM168.13 185.89L168.13 185.89Q168.13 187.07 164.28 191.81L164.28 191.81Q163.69 192.40 163.39 193.29L163.39 193.29L145.34 225.55Q132.90 245.98 113.96 255.15L113.96 255.15L111.59 255.15L111.59 254.26Q127.58 239.17 140.60 215.78L140.60 215.78Q147.70 203.06 148.89 194.18L148.89 194.18L148.59 190.92L148 190.33Q146.52 190.62 137.64 194.47L137.64 194.47Q132.02 197.14 126.69 195.36L126.69 195.36Q120.18 193.29 118.40 190.33L118.40 190.33L119.88 188.85Q140.30 184.41 143.56 183.22L143.56 183.22Q147.70 181.45 151.26 179.38L151.26 179.38Q162.50 180.26 168.13 185.89ZM127.58 171.09L127.58 171.09Q126.98 171.98 121.36 177.01L121.36 177.01Q120.47 177.60 119.88 178.49L119.88 178.49L101.53 198.32Q119.88 206.61 121.06 214.90L121.06 214.90L120.77 220.82Q120.18 222.89 118.99 223.48L118.99 223.48L114.85 222.00Q102.12 209.86 88.21 198.91L88.21 198.91L88.21 254.26Q88.21 262.55 79.92 270.25L79.92 270.25Q79.03 271.14 78.14 271.73L78.14 271.73Q73.41 271.73 70.15 265.81L70.15 265.81L57.13 248.34Q55.06 245.09 54.17 242.13L54.17 242.13Q56.83 242.13 66.01 246.57L66.01 246.57Q70.45 248.64 73.70 248.64L73.70 248.64Q76.96 240.65 76.96 191.51L76.96 191.51Q76.96 167.24 70.45 153.62L70.45 153.62Q68.38 151.85 68.38 149.78L68.38 149.78L68.67 148.30Q74.30 144.74 85.84 150.37L85.84 150.37Q91.17 153.03 92.94 155.99L92.94 155.99L88.21 186.18Q87.91 189.74 87.91 193.29L87.91 193.29Q90.58 193.29 97.98 197.14L97.98 197.14Q107.45 177.60 108.04 175.53L108.04 175.53Q109.22 171.98 109.22 169.90L109.22 169.90Q109.22 162.80 110.70 162.50L110.70 162.50Q116.03 160.73 123.43 166.94L123.43 166.94Q126.10 169.02 127.58 171.09ZM70.45 184.41L70.45 184.41Q70.45 186.18 66.60 191.22L66.60 191.22L65.12 193.88Q48.25 228.81 31.97 243.31L31.97 243.31Q23.09 251.30 12.73 256.04L12.73 256.04L7.99 256.04L8.58 254.56Q32.56 234.14 46.18 203.35L46.18 203.35Q50.32 194.47 50.32 192.70L50.32 192.70Q50.62 190.33 49.14 189.14L49.14 189.14Q46.77 189.44 36.41 194.18L36.41 194.18Q29.30 197.14 23.98 195.36L23.98 195.36Q15.98 192.99 14.80 189.74L14.80 189.74Q17.76 188.26 32.56 185.30L32.56 185.30Q43.81 183.22 53.28 177.60L53.28 177.60Q63.94 179.08 70.45 184.41Z" stroke="#000" fill="black" /></svg>