<svg width="296" height="296" version="1.1" xmlns="http://www.w3.org/2000/svg" xmlns:xlink="http://www.w3.org/1999/xlink"><path d="M222 16.55L222 16.55Q222 20.39 216.38 26.91L216.38 26.91Q214.30 28.98 213.42 30.75L213.42 30.75Q212.23 33.42 204.83 61.54L204.83 61.54Q197.43 88.77 190.03 92.32L190.03 92.32Q185.30 91.14 178.19 81.67L178.19 81.67L129.94 86.99L127.28 92.32L126.69 92.62L125.21 92.03L124.91 92.03Q118.10 88.77 115.14 68.64L115.14 68.64Q113.96 60.65 113.37 58.58L113.37 58.58Q106.26 31.05 105.08 27.50L105.08 27.50Q102.71 20.99 99.46 15.66L99.46 15.66Q99.46 11.81 101.23 10.92L101.23 10.92Q110.70 12.40 117.22 15.07L117.22 15.07L197.73 0.86Q204.54-0.33 218.15 12.70L218.15 12.70Q220.22 14.77 222 16.55ZM161.62 16.55L157.18 17.43Q163.39 22.47 164.28 24.83L164.28 24.83Q164.58 25.72 164.58 26.61L164.58 26.61L157.18 42.30Q172.27 47.03 176.42 50.59L176.42 50.59Q179.08 52.66 180.56 55.62L180.56 55.62Q180.56 63.31 177.90 64.50L177.90 64.50L153.62 47.92Q137.94 68.94 133.20 70.42L133.20 70.42L131.13 70.12L130.83 70.12Q156.29 28.98 148 18.62L148 18.62L120.47 23.95L130.24 80.19L130.24 80.48L162.50 72.79Q168.13 71.90 173.75 72.49L173.75 72.49Q177.90 73.08 180.86 74.56L180.86 74.56Q186.78 70.71 193.58 39.34L193.58 39.34Q197.14 22.47 196.25 18.62L196.25 18.62Q195.06 15.07 191.81 14.18L191.81 14.18Q185 12.11 161.62 16.55L161.62 16.55ZM81.40 31.05L80.81 35.49Q77.55 40.82 72.52 39.34L72.52 39.34Q70.15 38.75 68.08 36.67L68.08 36.67Q51.80 21.28 44.99 8.85L44.99 8.85L46.47 4.71L47.06 4.41Q61.86 6.48 74.89 15.95L74.89 15.95Q81.99 20.69 81.40 31.05L81.40 31.05ZM253.97 187.63L253.97 187.63Q249.82 190.00 240.65 189.41L240.65 189.41L238.87 189.41Q180.26 186.45 142.08 189.41L142.08 189.41Q128.46 190.30 115.44 192.07L115.44 192.07L87.62 196.81Q80.81 197.40 74.89 193.55L74.89 193.55Q70.74 190.89 69.26 187.04L69.26 187.04L71.04 185.56L104.19 183.49Q104.19 183.19 102.42 177.27L102.42 177.27L93.24 134.35Q90.87 125.77 87.32 118.67L87.32 118.67Q87.32 116.30 89.10 115.41L89.10 115.41Q96.20 116.30 105.67 119.55L105.67 119.55L185 107.12Q207.20 103.57 211.94 103.57L211.94 103.57Q225.85 111.56 227.92 113.34L227.92 113.34Q232.06 116.89 232.06 119.55Q232.06 122.22 224.96 130.21L224.96 130.21Q222.89 132.87 222.30 134.06L222.30 134.06Q217.86 141.46 211.94 163.95L211.94 163.95Q210.46 169.58 209.27 173.13L209.27 173.13L229.10 172.24Q238.28 172.54 244.20 176.39L244.20 176.39Q251.90 181.42 253.38 184.38L253.38 184.38Q253.97 185.86 253.97 187.63ZM204.54 119.55L204.54 119.55L201.87 115.41Q197.14 114.82 180.56 116.89L180.56 116.89Q175.82 117.48 172.57 117.48L172.57 117.48Q181.15 124.59 181.74 131.10L181.74 131.10Q177.60 142.05 171.98 173.13L171.98 173.13Q171.68 175.79 171.38 177.87L171.38 177.87L191.51 175.79Q196.84 167.51 202.76 133.76L202.76 133.76Q204.54 123.70 204.54 119.55ZM162.80 118.37L162.80 118.37Q141.49 121.33 136.75 122.51L136.75 122.51Q141.78 129.32 143.86 173.13L143.86 173.13Q144.15 177.87 144.15 180.53L144.15 180.53Q150.66 179.05 160.73 179.05L160.73 179.05L165.17 146.49Q166.35 130.21 162.80 118.37ZM115.44 182.01L136.16 180.83Q131.13 170.76 131.13 147.08L131.13 147.08Q131.13 131.10 129.35 123.40L129.35 123.40L108.04 128.43L115.14 175.20Q115.44 178.75 115.44 182.01L115.44 182.01ZM45.58 94.39L45.58 94.39Q35.82 90.25 23.38 76.34L23.38 76.34Q21.31 73.97 20.13 71.90L20.13 71.90Q18.35 69.23 18.35 64.79L18.35 64.79Q24.27 60.95 38.78 68.64L38.78 68.64Q53.28 76.63 54.46 85.51L54.46 85.51Q55.06 89.36 52.10 92.32L52.10 92.32Q50.32 94.39 45.58 94.39ZM72.52 105.94L72.52 105.94Q45.88 170.76 41.14 190.89L41.14 190.89Q39.66 197.11 39.37 201.25L39.37 201.25Q35.82 202.73 31.38 199.47L31.38 199.47Q30.19 198.88 29.01 197.70L29.01 197.70Q20.13 189.11 20.13 170.47L20.13 170.47Q29.30 165.14 50.62 130.21L50.62 130.21Q67.19 103.27 71.93 100.91L71.93 100.91Q73.11 101.79 72.52 105.94Z" stroke="#000" fill="black" /></svg>